<svg xmlns="http://www.w3.org/2000/svg" xml:space="preserve" width="600.00476" height="600" viewBox="0 0 600.00476 600"><path d="M333.46 10.315c-123.378 0-223.754 100.375-223.754 223.753 0 123.378 100.376 223.753 223.755 223.753 123.378 0 223.753-100.375 223.753-223.753 0-123.378-100.375-223.753-223.753-223.753" style="fill:#fff;fill-opacity:1;fill-rule:nonzero;stroke:none;stroke-width:1.22574" transform="matrix(1.33333 0 0 -1.33333 -144.611 612.09)"/><path d="M333.461 459.068c-124.066 0-225.003-100.936-225.003-225 0-124.067 100.937-225 225.003-225 124.066 0 225.001 100.933 225.001 225 0 124.064-100.935 225-225 225zm0-1.246c123.379 0 223.753-100.376 223.753-223.755 0-123.377-100.374-223.751-223.753-223.751-123.378 0-223.755 100.374-223.755 223.751 0 123.379 100.377 223.755 223.755 223.755z" style="fill:#231f20;fill-opacity:1;fill-rule:nonzero;stroke:none;stroke-width:1.22574" transform="matrix(1.33333 0 0 -1.33333 -144.611 612.09)"/><path d="M332.244 388.386c-32.272 0-58.434-26.164-58.434-58.438v-.014h116.87v.014c0 32.274-26.165 58.438-58.436 58.438zm-3.356-6.02c.288.029.628-.024.979-.268l16.31-15.4s1.662-1.506 1.09-3.427c0 0-.467-1.714-2.338-1.714h-9.143l-5.14 5.246h10.324l-13.208 12.986s-.937 1.323.31 2.258c0 0 .336.273.816.32zm-11.802-8.542c.287.028.628-.026.979-.27l16.31-15.4s1.662-1.505 1.092-3.427c0 0-.47-1.715-2.34-1.715h-9.14l-5.141 5.248h10.324l-13.208 12.985s-.936 1.322.31 2.257c0 0 .335.275.814.322zm36.022-6.425a3.077 3.077 0 1 0 .001-6.154 3.077 3.077 0 0 0-.001 6.154zm-25.87-.827h1.747l5.033-5.04h-1.632zm13.538-7.716a3.079 3.079 0 1 0-.002-6.157 3.079 3.079 0 0 0 .002 6.157zm-25.34-.83h1.747l5.033-5.04h-1.632zm-2.067-1.16c.628.036 1.008-.373 1.008-.373l9.713-9.61s1.35-1.301.155-2.545l-10.335-10.596c-1.61-1.245-2.649.156-2.649.156-.935 1.558.259 2.494.259 2.494l9.504 9.402-8.36 8.362c-1.403 1.609 0 2.492 0 2.492.26.143.496.205.705.217zm-39.55-27.25a59.01 59.01 0 0 1 .665-8.563h115.522a58.5 58.5 0 0 1 .662 8.563zm.78-9.197a58.101 58.101 0 0 1 1.975-8.248h111.34a57.612 57.612 0 0 1 1.979 8.248zm2.298-9.198a58.218 58.218 0 0 1 3.273-7.771h104.15a58.067 58.067 0 0 1 3.275 7.771zm3.923-9.039a58.34 58.34 0 0 1 4.803-7.453h93.242a58.072 58.072 0 0 1 4.803 7.453zm6.299-9.356a58.833 58.833 0 0 1 7.44-7.52h75.371a58.847 58.847 0 0 1 7.443 7.52zm9.961-9.543a58.164 58.164 0 0 1 35.164-11.768 58.169 58.169 0 0 1 35.165 11.768z" style="fill:#2e3092;fill-opacity:1;fill-rule:nonzero;stroke:none;stroke-width:1.22574" transform="matrix(1.33333 0 0 -1.33333 -144.611 612.09)"/><path d="M237.19 319.51c-32.27 0-58.433-26.164-58.433-58.438v-.016h116.867v.016c0 32.274-26.162 58.437-58.434 58.437zm-6.284-5.506s1.663-.207 1.663-1.87v-8.104l8.965-8.547v-7.212h5.137v2.318c1.51 0 2.779-.975 3.248-2.322h15.867v-1.56h-15.704a3.442 3.442 0 0 0-3.411-3.024v1.548h-8.743v7.372l-3.802-4.189-5.37 5.198 4.955 4.913-4.83 4.248v9.308s-.052 1.923 2.025 1.923zm10.026-8.712a2.846 2.846 0 0 0 0-5.692 2.846 2.846 0 1 0 0 5.692zm-13.08-12.67 5.521-5.055-.582-.724-5.66 5.076zm-1.178-2.252 13.01-11.531s2.338-1.636 1.326-3.507c-.88-1.623-2.904-1.321-2.904-1.321h-8.317l-9.195-8.804c-1.713-1.249-2.413-.235-2.413-.235-.858 1.324.467 2.646.467 2.646l8.026 7.752zm3.433-7.283v-6.168h6.389zm-51.343-22.349c.016-2.909.24-5.77.666-8.563h115.52c.429 2.794.647 5.654.663 8.563zm.78-9.197a57.58 57.58 0 0 1 1.974-8.247h111.34a57.927 57.927 0 0 1 1.981 8.247zm2.298-9.195a57.282 57.282 0 0 1 3.275-7.772h104.147a57.894 57.894 0 0 1 3.272 7.772zm3.92-9.038a58.66 58.66 0 0 1 4.806-7.455h93.242a57.863 57.863 0 0 1 4.806 7.455zm6.303-9.36a58.805 58.805 0 0 1 7.44-7.518h75.372a58.966 58.966 0 0 1 7.439 7.518zm9.958-9.54a58.159 58.159 0 0 1 35.168-11.771 58.143 58.143 0 0 1 35.161 11.771z" style="fill:#ffcb04;fill-opacity:1;fill-rule:nonzero;stroke:none;stroke-width:1.22574" transform="matrix(1.33333 0 0 -1.33333 -144.611 612.09)"/><path d="M427.509 319.51c-32.271 0-58.434-26.164-58.434-58.438v-.016h116.868v.016c0 32.274-26.163 58.437-58.434 58.437zm2.205-12.038a3.305 3.305 0 0 0 3.21-2.535c.909-.029 1.62-.259 1.62-.54 0-.279-.674-.505-1.55-.54a3.299 3.299 0 0 0-3.28-3.007 3.312 3.312 0 0 0-3.313 3.31 3.314 3.314 0 0 0 3.313 3.312zm17.158-3.84c4.06.153 6.372-1.908 6.372-1.908v-17.118h-1.014v16.75c-7.537 4.673-15.509-2.414-19.825-7.403h9.384s1.56-.078 1.481-1.791c0 0-.176-1.557-1.655-1.403h-11.741c-.451-.627-.706-1.009-.706-1.009-4.52-7.172-11.53-7.25-11.53-7.25h-1.473l2.718-2.96s.856-1.088.157-2.023l-13.038-13.012s-.909-1.015-1.921-.16c0 0-1.092 1.092.232 2.808l10.674 10.985-3.778 4.362h-12.506v.935h11.695l-3.981 4.599s-.935 1.088.39 2.18c0 0 1.481 1.17 2.416-.155l6.084-6.624h1.862s6.312-.076 10.363 5.453c.443.606.93 1.24 1.433 1.871h-.653l-4.755 4.695-6.466-6.41-5.454 5.768 9.038 8.805 9.585-9.664h1.337a161.674 161.674 0 0 0 2.888 3.295c5.011 4.806 9.229 6.264 12.387 6.383zm-36.482-10.223 5.612-5.609-.857-.78-5.512 5.632zm-41.307-32.671c.014-2.909.236-5.77.664-8.563h115.522c.428 2.794.647 5.654.663 8.563zm.779-9.197a57.419 57.419 0 0 1 1.975-8.247h111.34a58.087 58.087 0 0 1 1.98 8.247zm2.296-9.196a57.56 57.56 0 0 1 3.277-7.771h104.148a57.847 57.847 0 0 1 3.271 7.77zm3.924-9.039a58.773 58.773 0 0 1 4.804-7.455h93.242a58.106 58.106 0 0 1 4.805 7.455zm6.302-9.358a58.645 58.645 0 0 1 7.439-7.518h75.372a58.887 58.887 0 0 1 7.44 7.518zm9.96-9.542a58.17 58.17 0 0 1 35.165-11.77 58.157 58.157 0 0 1 35.162 11.77z" style="fill:#ed1c24;fill-opacity:1;fill-rule:nonzero;stroke:none;stroke-width:1.22574" transform="matrix(1.33333 0 0 -1.33333 -144.611 612.09)"/><path d="m271.629 113.01 9.381-44.065h101.013l10.006 44.064zm15.689-9.86h3.34V90.176c1.689 1.522 3.68 3.46 5.979 5.819a95.602 95.602 0 0 1 6.329 7.155h4.22a178.087 178.087 0 0 0-5.31-6.275 98.345 98.345 0 0 0-4.993-5.26l12.166-14.663h-4.043l-10.549 12.2c-.916-.838-1.695-1.556-2.341-2.142a64.435 64.435 0 0 0-1.458-1.3v-8.758h-3.34zm23.775 0h4.045l8.09-22.157 8.086 22.157h4.01V76.952h-3.376v18.85l-6.612-18.85h-4.255l-6.61 18.85v-18.85h-3.378zm29.274 0h10.48c2.484 0 4.572-.705 6.26-2.126 1.686-1.416 2.531-3.332 2.531-5.75 0-2.347-.845-4.255-2.532-5.732-1.687-1.478-3.775-2.214-6.259-2.214h-7.14V76.952h-3.34zm22.462 0h17.901v-3.128h-14.558v-8.3h12.764v-3.2h-12.764v-11.57h-3.343zm-19.123-3.128v-9.6h7.141c1.312 0 2.514.377 3.604 1.14 1.09.763 1.636 2 1.636 3.711 0 1.738-.545 2.96-1.636 3.676a6.44 6.44 0 0 1-3.604 1.073z" style="fill:#2e3092;fill-opacity:1;fill-rule:nonzero;stroke:none;stroke-width:1.22574" transform="matrix(1.33333 0 0 -1.33333 -144.611 612.09)"/><path d="M333.461 414.618c-99.556 0-180.552-80.994-180.552-180.55 0-99.558 80.996-180.553 180.552-180.553 99.558 0 180.551 80.995 180.551 180.552 0 99.557-80.993 180.551-180.55 180.551zm0-1.246c98.87 0 179.305-80.436 179.305-179.305 0-98.868-80.435-179.305-179.305-179.305-98.868 0-179.305 80.437-179.305 179.305 0 98.869 80.437 179.305 179.305 179.305z" style="fill:#231f20;fill-opacity:1;fill-rule:nonzero;stroke:none;stroke-width:1.22574" transform="matrix(1.33333 0 0 -1.33333 -144.611 612.09)"/><path d="M288.604 252.737c-.414-13.088 10.557-23.488 22.8-23.488 12.242 0 18.816 9.39 20.995 15.776 4.52 12.154 11.306 18.361 23.532 17.742 12.309-.624 21.659-11.978 19.945-25.689 0 0 .93.967.894 8.899-.113 24.484-19.849 44.332-44.332 44.332-22.127 0-40.507-16.379-43.834-37.572-.012-.074.011.072 0 0" style="fill:#ed1c24;fill-opacity:1;fill-rule:nonzero;stroke:none;stroke-width:1.22575" transform="matrix(1.33333 0 0 -1.33333 -144.611 612.09)"/><path d="M330.53 170.385c0 32.272-26.162 58.434-58.434 58.434-32.273 0-58.434-26.162-58.434-58.434v-.02H330.53Zm-105.056-35.223h93.24a58.418 58.418 0 0 1 4.807 7.455H220.668a59.094 59.094 0 0 1 4.806-7.455m-11.804 34.886c.014-2.908.238-5.77.664-8.562h115.523c.428 2.793.646 5.654.66 8.562zm6.352-26.165h104.147a58.056 58.056 0 0 1 3.273 7.772H216.745a57.756 57.756 0 0 1 3.277-7.772m14.387-18.144h75.373a59.234 59.234 0 0 1 7.44 7.52H226.97a58.981 58.981 0 0 1 7.44-7.52m37.686-13.791a58.141 58.141 0 0 1 35.162 11.77H236.93a58.15 58.15 0 0 1 35.165-11.77m-55.672 40.655h111.34a58.018 58.018 0 0 1 1.979 8.248H214.448a57.677 57.677 0 0 1 1.976-8.248" style="fill:#231f20;fill-opacity:1;fill-rule:nonzero;stroke:none;stroke-width:1.22575" transform="matrix(1.33333 0 0 -1.33333 -144.611 612.09)"/><path d="m284.406 216.12-2.414-5.025h1.559l.757 1.284h1.615l1.128 1.911h5.146v1.83zm-24.1-12.859h-1.081l-2.038 3.064 3.119 2.902zm.804 12.212-7.048-9.834 3.336-3.62h11.043l-.24 4.983-.236 4.523h12.31l1.871 3.948zm7.494-17.12h-8.257v-22.67s.117-2.064 2.299-2.064c0 0 2.063-.117 2.142 2.297v20.726l9.193-19.867c1.403-3.193 3.506-2.026 3.506-2.026 1.636.854.235 3.817.235 3.817zm-8.257 1.48h8.136v1.252h-8.136zm3.92 17.741a3.364 3.364 0 0 1 0 6.726 3.366 3.366 0 0 1-3.364-3.363 3.366 3.366 0 0 1 3.364-3.363" style="fill:#fff;fill-opacity:1;fill-rule:nonzero;stroke:none;stroke-width:1.22575" transform="matrix(1.33333 0 0 -1.33333 -144.611 612.09)"/><path d="M449.267 170.385c0 32.272-26.163 58.434-58.434 58.434-32.272 0-58.434-26.162-58.434-58.434v-.02h116.868Zm-105.055-35.223h93.24a58.286 58.286 0 0 1 4.806 7.455H339.405a58.957 58.957 0 0 1 4.807-7.455m-11.804 34.886c.014-2.908.236-5.77.664-8.562h115.522c.427 2.793.647 5.654.662 8.562zm6.352-26.165h104.149a58.207 58.207 0 0 1 3.27 7.772H335.483a57.756 57.756 0 0 1 3.277-7.772m14.387-18.144h75.373a59.316 59.316 0 0 1 7.44 7.52h-90.252a58.981 58.981 0 0 1 7.44-7.52m37.685-13.791a58.145 58.145 0 0 1 35.163 11.77h-70.329a58.155 58.155 0 0 1 35.166-11.77m-55.671 40.655h111.34a58.185 58.185 0 0 1 1.979 8.248H333.186a57.512 57.512 0 0 1 1.976-8.248" style="fill:#00a650;fill-opacity:1;fill-rule:nonzero;stroke:none;stroke-width:1.22575" transform="matrix(1.33333 0 0 -1.33333 -144.611 612.09)"/><path d="M407.08 203.968a3.387 3.387 0 1 1 0 6.775 3.388 3.388 0 1 1 0-6.775m-19.34 4.629-.958.767 4.324 4.772 5.967-5.54zm30.56-.659-9.49-9.955-7.69 6.838v4.99l-8.648 7.556s-1.325 1.321-2.96-.314l-6.857-7.788 7.088-7.17h9.818l9.35-8.178 11.453 11.918zM388.5 201.84l-6.753 6.436-.65-.646 6.851-6.515zm-4.615-10.73v6.242L391 191.11zm-3.937 15.094v-17.421l-9.628-9.794s-1.144-1.176-.104-2.426c0 0 1.244-.827 2.596.314l9.868 9.868h11.699s2.119-.208 2.949 1.455c0 0 .935 1.768-1.141 3.534z" style="fill:#fff;fill-opacity:1;fill-rule:nonzero;stroke:none;stroke-width:1.22575" transform="matrix(1.33333 0 0 -1.33333 -144.611 612.09)"/><path d="M516.458 321.84c.94-.144 1.932-.505 2.979-1.081a4.43 4.43 0 0 0 1.576-1.487c.43-.652.725-1.162.888-1.532l1.382.698c-.195.43-.504.945-.931 1.548a6.264 6.264 0 0 1-1.564 1.529 8.9 8.9 0 0 1-1.938 1.002 7.44 7.44 0 0 1-1.996.444l2.734 1.38-.728 1.443-15.99-8.063.729-1.441 9.528 4.803c1.283.644 2.394.899 3.331.757m-35.195 52.96c1.933-.09 3.48-.822 4.64-2.191 1.1-1.304 1.62-2.903 1.557-4.799-.065-1.895-.892-3.538-2.485-4.918l-8.822 10.168c1.471 1.249 3.173 1.829 5.11 1.74m-4.329-15.25c-1.206.244-2.36 1.001-3.464 2.272-1.044 1.204-1.485 2.85-1.321 4.939.165 2.086 1.152 3.918 2.966 5.492l9.994-11.518c2.348 1.949 3.628 4.127 3.839 6.538.21 2.412-.448 4.499-1.977 6.261-1.692 1.952-3.738 2.88-6.139 2.786-2.399-.092-4.61-1.012-6.625-2.761-2-1.735-3.219-3.79-3.658-6.16-.439-2.37.18-4.537 1.854-6.503 1.484-1.71 3.057-2.66 4.714-2.838 1.656-.184 3.13-.023 4.423.473l-1.169 1.347c-1.082-.466-2.228-.576-3.437-.328m58.653-74.06-17.809-4.927.43-1.556 17.81 4.926zm-13.759-18.68c-.383 1.959.082 3.715 1.393 5.258 1.309 1.547 3.087 2.539 5.335 2.979 2.246.439 4.261.185 6.045-.761 1.783-.945 2.868-2.395 3.25-4.354.381-1.961-.078-3.723-1.374-5.276-1.298-1.555-3.068-2.552-5.316-2.988-2.247-.44-4.27-.184-6.066.77-1.797.954-2.886 2.41-3.267 4.372m9.642-6.73c2.62.51 4.7 1.682 6.243 3.515 1.542 1.83 2.061 4.034 1.559 6.61-.503 2.58-1.81 4.423-3.924 5.53-2.113 1.11-4.48 1.409-7.1.9-2.6-.507-4.682-1.675-6.248-3.498-1.564-1.826-2.095-4.028-1.595-6.607.503-2.573 1.823-4.42 3.96-5.536 2.137-1.116 4.505-1.422 7.105-.914m-24.293 80.552c1.891-.42 3.29-1.404 4.198-2.953.862-1.474 1.097-3.137.711-4.996-.385-1.855-1.482-3.328-3.29-4.417l-6.95 11.527c1.662.98 3.442 1.258 5.33.839m-2.51-16.076-.922 1.526c-1.146-.271-2.294-.185-3.44.265-1.148.45-2.155 1.395-3.024 2.832-.825 1.367-.975 3.062-.456 5.09.519 2.032 1.806 3.665 3.861 4.904l7.875-13.058c2.647 1.52 4.281 3.45 4.903 5.786.62 2.338.33 4.508-.877 6.507-1.335 2.21-3.19 3.474-5.572 3.795-2.38.321-4.712-.21-7.002-1.589-2.266-1.364-3.819-3.182-4.657-5.44-.838-2.261-.6-4.5.714-6.723 1.17-1.941 2.556-3.144 4.158-3.605 1.602-.46 3.081-.561 4.44-.29m-4.79 26.253c-.59-1.891-1.802-3.505-3.632-4.843-1.832-1.337-3.741-2-5.733-1.997-1.99.006-3.575.815-4.751 2.426-1.178 1.613-1.47 3.376-.874 5.28.593 1.909 1.805 3.53 3.635 4.867 1.833 1.336 3.74 1.994 5.73 1.974 1.986-.022 3.57-.838 4.747-2.451 1.179-1.614 1.47-3.367.879-5.256m9.015 4.436-8.4-6.135c.746 1.298 1.077 2.644.99 4.038-.09 1.393-.582 2.709-1.48 3.94-1.444 1.976-3.347 3.002-5.712 3.082-2.364.08-4.625-.67-6.781-2.24-2.138-1.565-3.539-3.49-4.2-5.78-.663-2.287-.27-4.419 1.171-6.397.899-1.23 2.007-2.101 3.324-2.615 1.32-.507 2.693-.604 4.125-.282l-2.937-2.144.954-1.305 19.898 14.532zm8.523-67.75c.12.277.316.471.588.584.27.114.641.246 1.11.398l12.67 4.136.794-2.432 1.248.408-.793 2.43 5.182 1.692-.501 1.539-5.183-1.693-.69 2.11-1.246-.404.689-2.113-12.768-4.17a10.746 10.746 0 0 1-1.195-.462 2.227 2.227 0 0 1-.898-.717 3.13 3.13 0 0 1-.538-.953 1.594 1.594 0 0 1 .024-1.16l.524-1.496 1.246.408-.297.911c-.114.356-.104.684.034.984m24.614-2.317-.647 2.336-2.334-.646.645-2.338zm-27.72 13.66c-1.606 1.216-2.727 2.448-3.363 3.689-.749 1.463-1.048 2.79-.898 3.982.15 1.193.761 2.023 1.832 2.485.779.348 1.665.38 2.655.097.99-.282 1.89-1.023 2.7-2.217.3-.433.833-1.348 1.592-2.748.76-1.397 1.35-2.396 1.768-3 .237-.339.518-.678.839-1.02.323-.34.672-.579 1.044-.715l-4.044-1.673c-1.14-.47-2.515-.098-4.124 1.12m10.895-.142c1.784.737 2.87 1.98 3.265 3.735.392 1.752.188 3.593-.607 5.522-.824 1.992-2.056 3.473-3.696 4.443-1.639.974-3.23 1.095-4.773.362l.618-1.495c1.297.56 2.54.445 3.734-.35 1.189-.794 2.104-1.97 2.748-3.526.72-1.742.872-3.246.46-4.51-.414-1.26-1.14-2.107-2.174-2.536-.707-.293-1.367-.164-1.98.384-.616.547-1.087 1.07-1.41 1.565a36.338 36.338 0 0 0-1.753 3.14c-.608 1.203-1.263 2.242-1.964 3.119a6.609 6.609 0 0 1-2.977 2.139c-1.183.42-2.43.314-3.744-.325-1.314-.642-2.093-1.73-2.332-3.262-.24-1.532.043-3.162.855-4.89a10.153 10.153 0 0 1 2.945-3.643c1.273-.994 2.385-1.644 3.339-1.955a11.017 11.017 0 0 1-1.655-.847c-.499-.315-.821-.564-.966-.744l.618-1.495c1.016.715 1.846 1.2 2.49 1.466zm15.748-47.154c-.757 1.066-1.64 1.889-2.65 2.466l2.819.212-.12 1.61-17.857-1.33.121-1.612 11.614.865c1.118.082 2.345-.44 3.676-1.564 1.335-1.128 2.07-2.643 2.211-4.546.117-1.542-.274-2.849-1.174-3.919-.9-1.064-2.155-1.658-3.765-1.778l-11.68-.873.119-1.61 11.982.892c1.904.14 3.418.872 4.547 2.195 1.125 1.322 1.621 2.901 1.484 4.734-.131 1.768-.575 3.188-1.327 4.258m-66.332 127.204-9.785 9.59 7.258 7.406 10.985-10.77.943.964-12.14 11.899-17.223-17.574 1.13-1.108 8.13 8.246 9.784-9.59zm-176.177 50.101c-.238 1.914.21 3.659 1.344 5.226 1.134 1.57 2.593 2.465 4.375 2.681 1.694.206 3.316-.234 4.868-1.327 1.551-1.09 2.47-2.68 2.753-4.772zm11.849 7.536c-1.901 1.495-4.007 2.088-6.32 1.774-2.558-.346-4.454-1.55-5.692-3.61-1.238-2.06-1.677-4.41-1.318-7.054.356-2.627 1.406-4.77 3.149-6.435 1.742-1.667 3.894-2.335 6.454-2.012 2.246.305 3.899 1.1 4.956 2.385 1.06 1.291 1.737 2.611 2.028 3.964l-1.766-.24c-.206-1.16-.74-2.178-1.609-3.054-.866-.878-2.132-1.427-3.8-1.654-1.578-.216-3.197.318-4.852 1.599-1.659 1.28-2.647 3.11-2.97 5.49l15.108 2.05c-.344 3.033-1.466 5.298-3.368 6.797m-19.967-6.152c-1.066-1.201-2.44-1.99-4.126-2.37l-8.64-1.93-2.553 11.434 8.638 1.93c1.688.376 3.274.216 4.764-.471 1.486-.692 2.45-2.022 2.89-3.996.415-1.861.093-3.393-.973-4.597m-.804 9.702c-1.813.96-3.893 1.183-6.236.66l-10.148-2.267 5.362-24.012 1.543.343-2.19 9.964 8.574 1.913c2.342.524 4.14 1.554 5.395 3.103 1.253 1.54 1.637 3.399 1.152 5.567-.489 2.188-1.64 3.767-3.452 4.729m52.523 5.575-1.615.022-.077-5.454-2.218.032-.02-1.313 2.222-.028-.185-13.43c-.007-.448.01-.875.05-1.278.04-.404.167-.767.389-1.082.173-.296.417-.569.73-.82a1.61 1.61 0 0 1 1.104-.352l1.58.014.02 1.311c-.268.001-.589.01-.96.011-.37.007-.676.123-.92.35-.22.206-.342.456-.361.746-.016.29-.022.684-.016 1.18l.185 13.327 2.558-.034.017 1.31-2.557.038zm-10.49-6.976c-1.297 1.157-2.862 1.689-4.698 1.596-1.772-.091-3.202-.502-4.286-1.228-1.087-.73-1.931-1.595-2.532-2.59l-.142 2.821-1.615-.08.912-17.884 1.615.083-.594 11.63c-.058 1.123.493 2.335 1.652 3.64 1.155 1.306 2.688 2.007 4.595 2.105 1.544.08 2.841-.346 3.887-1.268 1.046-.925 1.612-2.191 1.695-3.804l.597-11.7 1.613.085-.612 12c-.097 1.904-.794 3.434-2.087 4.594m30.925-11.984c-.101-1.232-1.059-2.283-2.876-3.158-1.816-.878-3.422-1.314-4.818-1.313-1.643 0-2.96.339-3.953 1.015-.991.678-1.45 1.6-1.376 2.764.046.853.42 1.655 1.125 2.408.702.752 1.771 1.216 3.204 1.393.524.068 1.58.124 3.17.162 1.59.038 2.752.108 3.479.205.409.056.84.15 1.29.282.449.13.82.332 1.112.604zm.385 11.078c-1.381 1.148-3.112 1.81-5.193 1.98-2.145.174-4.026-.246-5.64-1.262-1.614-1.016-2.445-2.379-2.496-4.085l1.611-.133c.092 1.414.764 2.467 2.015 3.162 1.25.698 2.715.977 4.392.84 1.878-.155 3.285-.702 4.22-1.647.936-.941 1.358-1.975 1.265-3.091-.061-.761-.474-1.289-1.241-1.585-.768-.298-1.448-.482-2.038-.542a35.744 35.744 0 0 0-3.591-.129c-1.35.01-2.575-.101-3.672-.327a6.588 6.588 0 0 1-3.263-1.672c-.915-.862-1.387-2.021-1.416-3.48-.03-1.462.582-2.65 1.836-3.563 1.254-.912 2.835-1.403 4.744-1.467 1.594-.04 3.123.278 4.587.957 1.46.68 2.548 1.372 3.26 2.079a10.427 10.427 0 0 1 0-1.857c.053-.59.126-.99.222-1.2l1.61-.132c-.17 1.231-.227 2.194-.17 2.886l.792 9.658c.157 1.926-.454 3.461-1.834 4.61m57.793-23.813c-.881-2.112-2.215-3.651-4.003-4.62-1.788-.968-3.605-1.07-5.45-.302-1.844.77-3.045 2.125-3.607 4.073-.562 1.948-.402 3.976.478 6.09.877 2.113 2.206 3.65 3.98 4.614 1.775.964 3.581 1.06 5.425.295 1.845-.771 3.054-2.123 3.632-4.066.576-1.942.425-3.97-.455-6.084m2.025 6.523c-.672 2.297-2.22 3.951-4.644 4.961-2.424 1.01-4.682.94-6.776-.206-2.094-1.144-3.654-2.951-4.68-5.415-1.018-2.444-1.2-4.823-.548-7.135.654-2.314 2.191-3.975 4.615-4.984 2.423-1.009 4.69-.934 6.805.227 2.112 1.162 3.677 2.967 4.695 5.41 1.026 2.465 1.203 4.844.533 7.142m16.284-5.41c-1.538.88-2.963 1.308-4.27 1.282-1.307-.029-2.485-.299-3.528-.813l1.404 2.455-1.402.8-8.895-15.539 1.402-.8 5.786 10.105c.556.973 1.675 1.696 3.355 2.17 1.679.475 3.347.237 5.002-.711 1.346-.77 2.207-1.826 2.587-3.166.383-1.344.173-2.718-.63-4.119l-5.818-10.165 1.403-.804 5.968 10.43c.95 1.653 1.188 3.319.726 4.992-.466 1.675-1.495 2.971-3.09 3.883m-34.03 21.678-7.574-23.444 1.538-.496 7.574 23.444zm-30.647 6.196-1.597.249-.836-5.391-2.195.342-.202-1.296 2.195-.342-2.063-13.27a11.312 11.312 0 0 1-.13-1.273 2.24 2.24 0 0 1 .234-1.128 3.09 3.09 0 0 1 .606-.913c.272-.29.621-.459 1.048-.5l1.568-.212.2 1.297c-.265.04-.582.091-.947.148-.366.057-.654.214-.863.477a1.067 1.067 0 0 0-.252.788c.023.292.072.679.147 1.167l2.048 13.172 2.529-.394.2 1.298-2.527.391zm15.962-8.399c-1.766.422-3.26.425-4.478.01-1.216-.412-2.259-.992-3.126-1.73l2.201 9.268-1.571.373-5.694-23.97 1.571-.375 2.755 11.595c.222.936 1.071 1.863 2.547 2.782 1.474.92 3.139 1.16 4.996.717 1.506-.358 2.633-1.129 3.377-2.307.745-1.182.933-2.555.559-4.13l-2.708-11.394 1.571-.376 2.78 11.692c.44 1.856.203 3.52-.718 4.998-.918 1.473-2.271 2.425-4.062 2.847m-225.097-70.619 13.654-20.42-23.953 5.442-1.24-1.802 20.274-13.94.896 1.304-18.12 12.497 23.06-5.316 1.085 1.581-13.197 19.655 18.138-12.472.915 1.33-20.273 13.942zm29.37-2.016c-1.324-1.492-2.998-2.192-5.023-2.09-2.025.1-3.893.912-5.607 2.428-1.712 1.521-2.735 3.273-3.069 5.264-.335 1.991.16 3.733 1.486 5.227 1.324 1.497 3 2.197 5.022 2.116 2.023-.087 3.891-.886 5.604-2.407 1.713-1.519 2.737-3.282 3.073-5.288.334-2.004-.16-3.753-1.486-5.25m-.515 11.747c-1.998 1.77-4.192 2.713-6.582 2.823-2.391.113-4.458-.816-6.2-2.78s-2.41-4.124-2.008-6.475c.405-2.354 1.606-4.414 3.603-6.185 1.982-1.758 4.172-2.703 6.574-2.837 2.4-.132 4.47.781 6.212 2.747 1.741 1.965 2.406 4.136 1.993 6.509-.412 2.377-1.611 4.44-3.592 6.198m16.32 7.414c.213-1.982-.417-3.644-1.89-4.99-1.475-1.35-3.192-1.834-5.152-1.452-1.96.382-3.706 1.41-5.234 3.08-1.53 1.673-2.393 3.498-2.592 5.477-.197 1.979.442 3.64 1.915 4.992 1.474 1.344 3.184 1.828 5.128 1.447 1.944-.382 3.682-1.406 5.212-3.079 1.528-1.67 2.4-3.5 2.613-5.475m-13.224 17.03 7.018-7.679c-1.37.603-2.743.782-4.12.54-1.378-.237-2.63-.872-3.753-1.904-1.807-1.648-2.618-3.653-2.438-6.013.18-2.36 1.172-4.521 2.974-6.494 1.787-1.952 3.855-3.131 6.203-3.542 2.347-.404 4.424.217 6.23 1.87 1.126 1.026 1.869 2.226 2.233 3.592.362 1.367.305 2.74-.173 4.13l2.452-2.682 1.193 1.088-16.627 18.184zm33.538 11.102c.079.947.37 1.964.875 3.046.298.643.755 1.201 1.376 1.675.62.47 1.109.8 1.468.986l-.79 1.335c-.415-.223-.909-.569-1.48-1.038a6.215 6.215 0 0 1-1.42-1.66 8.717 8.717 0 0 1-.867-2.003 7.337 7.337 0 0 1-.31-2.02l-1.56 2.635-1.39-.827 9.129-15.402 1.39.825-5.44 9.176c-.733 1.237-1.06 2.328-.98 3.272m-17.065-16.236c-1.119 1.572-1.551 3.319-1.296 5.238.25 1.92 1.11 3.397 2.575 4.436 1.391.987 3.029 1.37 4.914 1.144 1.884-.223 3.447-1.185 4.69-2.893zm13.495 3.085c.37-1.118.382-2.27.035-3.453-.345-1.18-1.198-2.268-2.559-3.26-1.287-.938-2.965-1.236-5.032-.897-2.066.342-3.806 1.482-5.22 3.421l12.323 8.98c-1.743 2.507-3.807 3.966-6.19 4.384-2.384.413-4.519-.07-6.405-1.442-2.087-1.521-3.185-3.48-3.296-5.877-.112-2.402.617-4.683 2.191-6.839 1.558-2.14 3.501-3.53 5.826-4.165 2.324-.637 4.536-.207 6.636 1.293 1.832 1.334 2.908 2.82 3.228 4.457.322 1.635.29 3.118-.096 4.448zm24.296 26.872c-1.635.592-3.286.499-4.954-.277-1.608-.743-2.78-1.661-3.514-2.742-.733-1.084-1.193-2.198-1.378-3.349l-1.19 2.563-1.465-.679 7.538-16.242 1.468.681-4.906 10.564c-.472 1.016-.415 2.348.17 3.99.584 1.65 1.742 2.869 3.473 3.673 1.404.651 2.764.745 4.08.28 1.317-.464 2.317-1.43 2.996-2.896l4.932-10.622 1.465.682-5.058 10.896c-.803 1.732-2.021 2.893-3.657 3.478M159.091 311.5c-.427-1.587-1.093-2.772-2.004-3.554-.912-.782-1.92-.99-3.026-.614-.812.264-1.49.833-2.034 1.71-.544.872-.717 2.025-.515 3.455.069.525.29 1.56.665 3.106.375 1.546.608 2.682.702 3.41.053.412.072.852.061 1.32-.01.47-.108.879-.292 1.228l4.119-1.473c1.162-.414 1.93-1.615 2.306-3.595.376-1.982.38-3.647.018-4.994m-8 12.408c-1.816.651-3.458.458-4.924-.58-1.469-1.035-2.553-2.533-3.257-4.499-.726-2.03-.807-3.952-.244-5.773.564-1.824 1.663-2.981 3.298-3.472l.546 1.522c-1.339.456-2.182 1.379-2.531 2.765-.35 1.387-.242 2.877.326 4.46.635 1.773 1.53 2.99 2.683 3.65 1.153.66 2.259.8 3.316.425.718-.258 1.121-.796 1.21-1.616.088-.816.086-1.519-.005-2.107-.177-1.03-.447-2.2-.806-3.502-.358-1.302-.571-2.511-.639-3.632a6.583 6.583 0 0 1 .774-3.581c.593-1.11 1.59-1.865 2.994-2.272 1.404-.408 2.71-.123 3.915.851 1.206.973 2.089 2.374 2.648 4.202.452 1.528.54 3.09.262 4.677-.278 1.589-.665 2.82-1.164 3.689a10.76 10.76 0 0 1 1.793-.48c.583-.105.99-.137 1.217-.098l.544 1.521c-1.231.156-2.174.35-2.829.585zm-14.237-41.936c-.632.711-1.164 1.62-1.598 2.733-.26.659-.349 1.378-.262 2.153.087.775.186 1.354.3 1.743l-1.509.348c-.127-.454-.219-1.05-.274-1.783-.054-.735.02-1.46.222-2.177a8.761 8.761 0 0 1 .85-2.012 7.226 7.226 0 0 1 1.248-1.615l-2.984.687-.364-1.574 17.446-4.031.362 1.574-10.395 2.401c-1.399.322-2.412.842-3.042 1.553m9.988-17.483c-.335-1.97-1.39-3.448-3.161-4.43-1.773-.984-3.786-1.283-6.043-.9-2.257.384-4.052 1.334-5.388 2.848-1.335 1.511-1.835 3.25-1.5 5.224.335 1.969 1.384 3.45 3.148 4.445 1.763.998 3.772 1.303 6.028.922 2.258-.385 4.058-1.341 5.402-2.866 1.345-1.528 1.85-3.274 1.514-5.243m-6.643 9.7c-2.632.45-4.993.09-7.082-1.082-2.088-1.166-3.353-3.047-3.793-5.634-.442-2.59.13-4.773 1.716-6.56 1.586-1.781 3.694-2.9 6.326-3.346 2.61-.444 4.97-.09 7.079 1.063 2.108 1.155 3.383 3.025 3.824 5.614.441 2.588-.142 4.783-1.747 6.581-1.606 1.8-3.714 2.92-6.323 3.364m-13.914-23.12a123.782 123.782 0 0 1-4.921 5.286l-.18-2.113a128.497 128.497 0 0 0 6.496-7.21 182.961 182.961 0 0 0 6.48-8.184l-14.183 1.243-.137-1.61 24.515-2.09.137 1.606-8.117.692c-.417.623-1.055 1.477-1.908 2.561-.853 1.089-1.78 2.25-2.778 3.485l14.246 9.794.168 1.982-15.46-10.575a192.706 192.706 0 0 1-4.358 5.134m16.423 39.118c-1.85.552-3.266 1.662-4.246 3.33-.982 1.671-1.216 3.364-.701 5.086.49 1.63 1.546 2.942 3.17 3.926 1.622.983 3.447 1.186 5.476.606zm9.228 12.453-.491-1.716c.982-.654 1.699-1.555 2.152-2.7.455-1.144.451-2.523-.01-4.143-.44-1.532-1.577-2.8-3.416-3.806-1.838-1.001-3.911-1.174-6.22-.513l4.19 14.661c-2.917.902-5.442.783-7.576-.355-2.134-1.142-3.521-2.834-4.164-5.076-.708-2.484-.369-4.701 1.02-6.665 1.389-1.96 3.366-3.308 5.934-4.04 2.546-.728 4.932-.627 7.157.3 2.224.93 3.702 2.63 4.434 5.106.622 2.177.556 4.012-.197 5.499-.755 1.484-1.691 2.635-2.813 3.448M161.214 134.03l-2.399 3.831 8.697 5.444-.761 1.217-20.741-12.988.762-1.216 11.03 6.907 2.397-3.827-12.043-7.545.763-1.216 22.31 13.976-.762 1.212zm-11.174 1.722 1.014.635c-.591.642-1.399 1.678-2.422 3.106-1.026 1.432-1.856 2.652-2.491 3.668l-.84 1.343 11.915 7.464 3.938-6.29 1.015.635-4.685 7.482-13.945-8.732 1.54-2.46a63.381 63.381 0 0 1 2.646-3.889c.97-1.322 1.74-2.309 2.315-2.962m37.11-46.634-1.089.938-4.869-5.684 13.175-11.289.78.906-12.085 10.361zm22.236 4.977-12.851-14.99 1.068-.914 6.62 7.723 2.998-2.573.778.91-2.998 2.57 5.452 6.358zm-19.952 1.459c.56.653 1.394.967 2.506.943 1.111-.018 2.266-.54 3.464-1.567 1.225-1.05 1.929-2.123 2.113-3.212.183-1.088-.005-1.957-.563-2.61-.559-.65-1.38-.957-2.465-.924-1.085.042-2.242.584-3.467 1.637-1.197 1.024-1.899 2.075-2.11 3.149-.21 1.069-.034 1.934.522 2.584m.766-6.644c1.545-1.325 3.048-2.016 4.51-2.074 1.461-.056 2.583.367 3.36 1.277.78.911 1.04 2.083.78 3.53-.26 1.442-1.163 2.83-2.706 4.152-1.516 1.3-3.01 1.969-4.484 2.007-1.474.045-2.6-.387-3.38-1.297-.777-.911-1.032-2.078-.76-3.506.273-1.428 1.167-2.792 2.68-4.089m13.462 9.541-6.246 5.354-.78-.907 6.247-5.354zm.318-5.513-11.834 10.147-.779-.912 11.834-10.141zm35.878-39.861-1.279.653-4.148-8.094 16.826-8.627.547 1.066-15.549 7.968zm22.12 5.77-16.452 8.432-.546-1.066 14.963-7.666c-.862-1.33-1.965-2.916-3.312-4.757a476.807 476.807 0 0 0-2.66-3.612l-16.799 8.61-.546-1.065 22.259-11.41.545 1.069-4.154 2.128c.48.671 1.446 1.998 2.897 3.978 1.45 1.98 2.72 3.763 3.806 5.358m249.412 81.066-3.637-5.91-7.9 4.856 3.633 5.913zm-13.31-1.651 9.942-6.11 5.138 8.358-9.94 6.11zm28.5 2.883c-.168-1.606-.847-3.378-2.038-5.314-1.191-1.938-2.463-3.339-3.814-4.204-1.353-.87-2.539-.99-3.559-.363-1.052.65-1.496 1.773-1.334 3.371.161 1.595.838 3.366 2.03 5.301 1.19 1.938 2.467 3.34 3.823 4.216 1.355.872 2.561.99 3.615.34 1.018-.623 1.446-1.741 1.278-3.347m-.52 4.64c-1.259.77-2.711.74-4.36-.095-1.65-.835-3.268-2.547-4.855-5.127-1.57-2.55-2.355-4.754-2.36-6.608-.009-1.86.618-3.175 1.876-3.95 1.256-.77 2.709-.731 4.355.118 1.645.85 3.252 2.55 4.82 5.097 1.588 2.581 2.385 4.795 2.394 6.638.013 1.845-.614 3.157-1.87 3.926m-8.476-1.674-6.168 3.791 2.24 3.647 6.679-4.104.737 1.198-13.712 8.428-.737-1.197 6.016-3.699-2.24-3.642-5.635 3.46-.734-1.198 12.819-7.88zm-42.984-49.912c-.242.309-.507.6-.797.876-.263.246-.54.472-.836.684a6.09 6.09 0 0 1-.894.536l4.559 4.83 3.199-3.02-4.621-4.897a5.372 5.372 0 0 1-.61.99m-1.633-7.636c-1.135-1.201-2.385-1.783-3.748-1.749-1.364.04-2.573.559-3.634 1.56-1.072 1.013-1.663 2.196-1.773 3.548-.11 1.35.404 2.627 1.542 3.831 1.163 1.232 2.417 1.827 3.757 1.78 1.342-.049 2.55-.573 3.622-1.587 1.06-1 1.653-2.172 1.784-3.518.132-1.343-.386-2.633-1.55-3.865m2.723 5.414c.013.016 1.683 1.784 5.011 5.305l5.852-5.524.987 1.044-13.925 13.145-.984-1.043 3.132-2.954-4.93-5.223c-1.108.28-2.237.258-3.384-.056-1.149-.318-2.187-.967-3.12-1.954-1.353-1.432-1.997-3.06-1.922-4.866.072-1.814.777-3.348 2.11-4.61 1.336-1.258 2.908-1.873 4.721-1.84 1.81.026 3.397.763 4.751 2.199.89.944 1.472 1.976 1.742 3.106.272 1.13.257 2.222-.04 3.271m5.021-14.248-5.002 4.724-.965-1.024 5.873-5.543 12.201 12.922-.872.823zm-45.43-21.605-10.467-5.419-2.08 4.01-1.247-.646 2.078-4.012-10.493-5.435.55-1.065 22.21 11.51zm-22.268-7.353 1.372-.502c1.962 1.803 3.378 3.6 4.246 5.395.864 1.8 1.334 3.366 1.402 4.708 1.352-.83 3.172-1.352 5.462-1.571 2.292-.216 4.294-.114 6.011.301l.38 1.41c-1.917-.59-4.253-.728-7.01-.412-2.757.314-4.49 1.149-5.196 2.513l7.44 3.855-.551 1.061-16.15-8.365.549-1.063 7.437 3.85c.763-1.465.471-3.377-.875-5.724-1.344-2.35-2.85-4.166-4.517-5.456m21.396-5.63c-1.043-1.303-2.591-2.486-4.646-3.55-2.055-1.062-3.911-1.644-5.568-1.739-1.659-.098-2.744.35-3.257 1.345-.532 1.023-.278 2.184.759 3.471 1.038 1.293 2.586 2.472 4.639 3.534 2.054 1.065 3.913 1.651 5.576 1.761 1.662.11 2.758-.351 3.29-1.375.515-.994.25-2.143-.793-3.447m-1.72 6.117c-1.91.065-4.212-.596-6.902-1.99-2.676-1.386-4.537-2.879-5.583-4.479-1.048-1.594-1.247-3.022-.595-4.284.652-1.253 1.933-1.92 3.842-1.983 1.91-.065 4.201.592 6.876 1.98 2.692 1.39 4.561 2.886 5.609 4.488 1.048 1.599 1.247 3.027.595 4.284-.653 1.256-1.933 1.917-3.842 1.984m-58.864-14.221c-1.483 1.273-3.15 1.828-5.002 1.647-.956-.093-1.893-.403-2.81-.93-.92-.525-1.61-1.17-2.075-1.95l-.479 7.887 9.647 1.802-.206 1.122-10.769-1.984.733-11.421 1.147.207c.21.628.67 1.395 1.388 2.293.716.904 1.868 1.44 3.462 1.61 1.39.16 2.728-.25 4.013-1.225 1.282-.967 2.003-2.444 2.166-4.42.16-1.53-.117-2.95-.829-4.258-.713-1.307-1.961-2.123-3.746-2.456-1.57-.287-2.91.03-4.023.952-1.113.918-1.783 1.832-2.011 2.743l-1.384-.252c.45-1.56 1.41-2.835 2.88-3.821 1.468-.987 3.134-1.312 5-.967 1.704.314 3.121 1.217 4.248 2.701 1.126 1.481 1.543 3.404 1.25 5.763-.251 2.025-1.117 3.676-2.6 4.957m-54.912-1.444-4.473.64 1.454 10.156-1.422.203-3.466-24.224 1.422-.203 1.844 12.881 4.472-.64-2.014-14.07 1.422-.2 3.73 26.06-1.423.208zm-12.294-6.084a71.538 71.538 0 0 0-4.408.461l-1.569.224 1.992 13.919 7.343-1.046.17 1.183-8.735 1.25-2.332-16.289 2.874-.411a64.205 64.205 0 0 1 4.673-.487c1.637-.114 2.89-.163 3.758-.143l.17 1.181c-.873-.038-2.183.015-3.936.158M131.93 185.638l1.066-2.24 2.324 1.103-1.065 2.24zm402.519 2.041-.964-2.29 2.37-.997.964 2.29z" style="fill:#231f20;fill-opacity:1;fill-rule:nonzero;stroke:none;stroke-width:1.22575" transform="matrix(1.33333 0 0 -1.33333 -144.611 612.09)"/><path d="M376.56 239.395c.416 13.087-9.151 23.258-22.797 23.663-12.238.363-18.817-9.563-20.999-15.956-4.518-12.154-10.887-18.072-23.115-17.452-12.31.623-22.25 11.69-20.535 25.401 0 0-.753-.967-.718-8.896.114-24.485 19.849-44.333 44.333-44.333 22.127 0 40.505 16.376 43.831 37.573.013.07-.009-.076 0 0" style="fill:#2e3092;fill-opacity:1;fill-rule:nonzero;stroke:none;stroke-width:1.22575" transform="matrix(1.33333 0 0 -1.33333 -144.611 612.09)"/><path d="M288.785 245.957c0 24.052 19.566 43.619 43.614 43.619 24.05 0 43.617-19.567 43.617-43.619 0-24.047-19.567-43.614-43.617-43.614-24.048 0-43.614 19.567-43.614 43.614m-1.276 0c0-24.751 20.137-44.891 44.89-44.891 24.755 0 44.894 20.14 44.894 44.891 0 24.756-20.139 44.896-44.894 44.896-24.753 0-44.89-20.14-44.89-44.896" style="fill:#fff;fill-opacity:1;fill-rule:nonzero;stroke:none;stroke-width:1.22575" transform="matrix(1.33333 0 0 -1.33333 -144.611 612.09)"/></svg>